<?xml version="1.0" encoding="utf-8"?>
<!-- Generator: Adobe Illustrator 23.0.1, SVG Export Plug-In . SVG Version: 6.00 Build 0)  -->
<svg version="1.1" id="Layer_1" xmlns="http://www.w3.org/2000/svg" xmlns:xlink="http://www.w3.org/1999/xlink" x="0px" y="0px"
	 viewBox="0 0 527.3 154.8" style="enable-background:new 0 0 527.3 154.8;" xml:space="preserve">
<g>
	<g>
		<path d="M87.2,69.3c-6.1-3.3-7.5-7.5-4.5-13.4c4.9-9.8,14.2-14,23.6-16.7c16.1-4.7,32.8-5.9,49.5-2.7
			c20.5,3.8,31.5,16.2,34.1,39.2c1,8.9,3.1,12.8,13,13.6c19.6,1.6,19.5,2.4,17.7-17c-1.1-11.5-1-23.1-0.4-34.6
			c0.3-5.9,1.1-11.8,5.2-16.6c2.5-2.9,5.3-5.6,9.6-4.5c4.1,1,6.2,3.9,7.2,7.8c1.6,5.8,1,11.7,0.4,17.6c-0.9,8.8-1.5,17.7-2.1,26.5
			c-0.1,1.5-0.6,3.6,1.2,4.3c2.4,1,3.1-1.3,4.1-2.9c3.4-5.5,6.6-11.1,10.2-16.4c1.4-2.1,3.1-5.6,6.1-3.8c2.6,1.6,0.8,4.9,0.1,7.4
			c-0.9,3-2.7,5.8-1.5,9.1c3.1,0.6,3.5-2.2,5-3.4c1-0.8,2.1-1.4,3.2-2.2c1.4,9.6,12.8-1.2,15.5,7.8c1,3.5,5.1,0.4,7.3-1.4
			c2.1-1.7,4.4-4.1,7.1-2.7c3.9,2.1-0.1,3.7-1,5.5c-0.6,1.3,0.4,2,1.3,2.5c3.9,2.2,16.7-2.9,17.5-7.4c0.6-3.7,2.6-5.1,5.6-5.8
			c2.8-0.6,4.6,0.5,5.8,3.1c2.1,4.7,6.5,3,9.9,2.9c33.3-0.9,66.5-3.7,99.7-6c8.6-0.6,17.2-1,25.7,0.3c3.6,0.6,7.2,1.3,10.3,5.5
			c-8.1,0.1-14.6-2.9-21.5-2.4c-33.5,2.5-67,4.6-100.5,6.9c-4,0.3-8.1,0.8-12.1,0.6c-10-0.5-19.5-0.3-28.8,4.6
			c-5.1,2.7-11.2,1.5-17.2-0.1c-10.2-2.6-20.3-6.9-31.4-2.4c-6.9,2.8-5.3-4.8-7.8-8c-4.5,2.6-4.6,7.8-7.5,11.1
			c-1.9,2.2-3.5,5.5-6.8,4.7c-3.5-0.8-3.4-4.4-3.7-7.3c-1-9.7,0.9-19.3,1.9-28.9c0.6-6.1,1.6-12.3-0.1-18.4
			c-0.6-2.4-1.6-4.8-4.3-5.3c-2.8-0.5-4.4,1.6-6,3.4c-3.1,3.7-3.4,8.4-4.1,12.9c-1.8,12.9-0.2,25.7,1.4,38.5
			c2.4,19.1-1.1,22.2-20,18.3c-2.1-0.4-4.2-0.6-6.4-1c-5.3-0.9-7.6,0.7-8.2,6.6c-1.2,13.1-7.5,23.9-17.1,32.9
			c-2.1,2-4.4,4.4-7.7,2.6c-3.4-1.8-3.4-4.6-3.3-8.2c0.7-13,2.6-26.1,15.2-32.6c9.4-4.8,9.2-10.5,7.4-18.8
			c-5.2-24.5-12.9-32.4-38-35.2c-16.3-1.8-32.8-0.8-48,6.8C86.8,53.1,85.2,56.1,87.2,69.3z M166.4,124.4c0.5,1.5-0.2,4.3,2.2,5.1
			c2.4,0.9,3.7-1.5,5.1-3.1c6.2-7.2,10.6-15.3,12.6-24.7c0.4-2.1,1.2-4.6-0.6-6.1c-2-1.7-4,0.1-5.7,1.3
			C170.3,103.3,167.3,113,166.4,124.4z"/>
		<path d="M18.8,75.3c4-8.4,7-16.1,12.4-22.5c1.7-2,3.4-4.2,5.4-6c3.3-2.8,7-5.8,11.5-3.2c4.5,2.6,5.7,7.1,4.4,11.9
			C50,65.6,47,75.7,44.2,85.8c-1.8,6.5-3.2,13.1-0.4,19.7c1.9,4.4,3.9,7.3,9.6,4.1c8.4-4.8,17.3-4.1,25.4,0.8
			c1.5-1.6,0.6-2.6,0.4-3.5c-3-11.9-2-13.6,9.8-15.3c8-1.2,15.6-3.9,23.3-6.2c14.2-4.4,28.6-3.7,42.9-0.6c2.6,0.6,6.3,1.9,5.7,5.6
			c-0.5,3.4-3.7,4.3-6.8,4.5c-1.3,0.1-3.3-0.4-2.3-2c3.9-6.5-2.2-5.4-4.5-5.5c-12.8-0.6-25.7-1.9-38.1,3.2c-6.7,2.8-13.7,4.7-21,5.2
			c-6.2,0.5-9.1,3.2-5.3,9.5c0.5,0.9,0.8,2,1.1,3c0.8,2.7,3.4,5.6,0.4,8.1c-3,2.5-5.6-0.1-7.8-1.8c-6-4.6-12.4-4.5-19.1-2.4
			c-3.8,1.2-6.4,2.8-2.9,7.3c4.3,5.5,3.4,11.1-1,16.1c-4.7,5.4-10.8,8.2-17.9,6.4c-4.8-1.2-7-4.7-5.5-9.9c1.5-5.3,4.2-10.1,8.7-13.3
			c4.1-2.9,5.3-5.3,2.3-9.8c-5.5-8.6-2.9-17.6-0.5-26.5c1.6-5.9,3.5-11.8,5.5-17.6c1.3-3.6,2.1-7.2,1.9-11c-0.1-2.3,0.2-5.1-2.8-6.1
			c-2.5-0.8-4.1,0.9-5.6,2.4C26.6,63,20,78.8,20.3,97.1c0.2,9.6,1.6,19.3,2.3,28.9c0.2,2.8,0.8,6.9-3,7.2c-3.9,0.4-3.8-3.6-4.2-6.5
			c-1.1-8.8-2.1-17.6-0.6-26.5c1.4-8.1-0.8-16-1.9-24c-0.6-4.2-0.9-8.5-1.2-12.8c-0.1-1.3,0-3,1.7-3.2c2.2-0.3,2.3,1.7,2.6,3.2
			C16.6,67,15.1,71,18.8,75.3z M39.5,138.6c5.2,0.1,14.3-7.1,13.9-11.5c-0.4-4.1-2.5-7.9-6.8-9c-3.1-0.8-12.9,11.3-12.9,15.3
			C33.8,137.1,36.2,138.4,39.5,138.6z"/>
	</g>
</g>
</svg>
